# xmcd
#
# Track frame offsets:
#	150
#	28021
#	47639
#	74634
#	93114
#	120446
#	139990
#	163011
#	189000
#	224968
#	238939
#	266074
#	292091
#	319492
#	339067
#
# Disc length: 4766 seconds
#
# Revision: 2
# Processed by: cddbd v1.5.2PL0 Copyright (c) Steve Scherf et al.
# Submitted via: EZCDAudioConverter 8.0.2.1
#
DISCID=eb129c0f
DTITLE=Hồng Trúc - 8. Nắng Đẹp Miền Nam
DYEAR=2002
DGENRE=country
TTITLE0=Hồng Trúc - Nắng Đẹp Miền Nam
TTITLE1=Hồng Trúc - Chàng là ai
TTITLE2=Hồng Trúc - Tám điệp khúc
TTITLE3=Hồng Trúc - Bao đêm không ngủ
TTITLE4=Hồng Trúc - Đường về quê hương
TTITLE5=Hồng Trúc - Nhạc rừng khuya
TTITLE6=Hồng Trúc, Nhật Khánh - Tình yêu đất nước
TTITLE7=Hồng Trúc - Chuyến đò vĩ tuyến
TTITLE8=Nhật Khánh - Tình ca quê hương
TTITLE9=Soundtrack - Rừng xưa
TTITLE10=Soundtrack - Tám điệp khúc
TTITLE11=Soundtrack - Chuyến đò vĩ tuyến
TTITLE12=Soundtrack - Đường về quê hương
TTITLE13=Soundtrack - Chàng là ai
TTITLE14=Soundtrack - Bao đêm không ngủ
EXTD=
EXTT0=
EXTT1=
EXTT2=
EXTT3=
EXTT4=
EXTT5=
EXTT6=
EXTT7=
EXTT8=
EXTT9=
EXTT10=
EXTT11=
EXTT12=
EXTT13=
EXTT14=
PLAYORDER=
